<svg id="visual" viewBox="0 0 900 600" width="900" height="600" xmlns="http://www.w3.org/2000/svg" xmlns:xlink="http://www.w3.org/1999/xlink" version="1.1"><rect x="0" y="0" width="900" height="600" fill="#002233"></rect><path d="M0 424L21.5 420.3C43 416.7 86 409.3 128.8 416.5C171.7 423.7 214.3 445.3 257.2 460.5C300 475.7 343 484.3 385.8 471.3C428.7 458.3 471.3 423.7 514.2 416C557 408.3 600 427.7 642.8 430.3C685.7 433 728.3 419 771.2 415.2C814 411.3 857 417.7 878.5 420.8L900 424L900 601L878.5 601C857 601 814 601 771.2 601C728.3 601 685.7 601 642.8 601C600 601 557 601 514.2 601C471.3 601 428.7 601 385.8 601C343 601 300 601 257.2 601C214.3 601 171.7 601 128.8 601C86 601 43 601 21.5 601L0 601Z" fill="#0066FF" stroke-linecap="round" stroke-linejoin="miter"></path></svg>