<svg id="visual" viewBox="0 0 900 600" width="900" height="600" xmlns="http://www.w3.org/2000/svg" xmlns:xlink="http://www.w3.org/1999/xlink" version="1.1"><rect x="0" y="0" width="900" height="600" fill="#002233"></rect><path d="M0 443L21.5 452.7C43 462.3 86 481.7 128.8 482.8C171.7 484 214.3 467 257.2 468.3C300 469.7 343 489.3 385.8 494.8C428.7 500.3 471.3 491.7 514.2 469.3C557 447 600 411 642.8 414C685.7 417 728.3 459 771.2 462.7C814 466.3 857 431.7 878.5 414.3L900 397L900 601L878.5 601C857 601 814 601 771.2 601C728.3 601 685.7 601 642.8 601C600 601 557 601 514.2 601C471.3 601 428.7 601 385.8 601C343 601 300 601 257.2 601C214.3 601 171.7 601 128.8 601C86 601 43 601 21.5 601L0 601Z" fill="#0066FF" stroke-linecap="round" stroke-linejoin="miter"></path></svg>